<svg width="40" height="40" viewBox="0 0 40 40" fill="none" xmlns="http://www.w3.org/2000/svg">
<circle cx="20" cy="20" r="20" fill="#1589C2"/>
<path d="M29.1507 11.3048H32.7329C32.8753 11.3048 33 11.4282 33 11.5693V29.5542C33 29.6952 32.8753 29.8186 32.7329 29.8186H21.5671C21.3534 30.2947 20.8548 30.9647 20 31C19.1274 30.9647 18.6288 30.2947 18.4329 29.8186H7.26712C7.12466 29.8186 7 29.6952 7 29.5542V11.5693C7 11.4282 7.12466 11.3048 7.26712 11.3048H10.8493M20.1781 13.1033C20.4274 12.9093 21.211 12.3803 22.5644 11.8514C24.0603 11.2695 25.589 10.5642 29.1507 10.529V27.4484C23.1671 27.6776 21.1753 29.6121 20.1781 30V13.1033ZM10.8493 10.529C14.411 10.5642 15.9397 11.2695 17.4356 11.8514C18.7712 12.3803 19.5548 12.9093 19.8219 13.1033V30C18.8247 29.6121 16.8329 27.6776 10.8493 27.4484V10.529Z" stroke="white" stroke-width="2"/>
</svg>
