<svg width="176" height="52" viewBox="0 0 176 52" fill="none" xmlns="http://www.w3.org/2000/svg">
<path fill-rule="evenodd" clip-rule="evenodd" d="M32.3906 11.468L24.862 5.51516L17.3333 11.468L18.6465 12.9562L24.862 8.05388L31.0774 12.9562L32.3906 11.468ZM49.7239 24.862C49.7239 11.1179 38.6061 0 24.862 0C11.1178 0 0 11.2054 0 24.862C0 33.5286 4.37711 41.0572 11.1178 45.5219V31.165H8.84175V41.3199C7.70371 39.8317 6.12795 37.8182 5.16498 36.0674C3.23906 32.7408 2.10101 29.064 2.10101 24.862C2.10101 12.2559 12.3434 1.83839 24.9495 1.83839C37.6431 1.83839 47.7104 12.3434 47.7104 24.862C47.7104 29.064 46.5724 32.8283 44.6465 36.1549C43.6835 37.9057 42.1953 39.8317 40.9697 41.4074V31.2525H38.6936V45.6094C45.4344 41.1448 49.7239 33.6162 49.7239 24.862ZM30.9899 49.0236V15.2323H28.7138V49.5488C29.5892 49.3738 30.202 49.1111 30.9899 49.0236ZM35.9798 47.1852V31.2525H33.7037V48.1482C34.5791 47.798 35.1044 47.5354 35.9798 47.1852ZM26 49.7239V15.2323H23.7239V49.7239C24.1616 49.7239 24.4242 49.8115 24.862 49.8115C25.2997 49.8115 25.6498 49.7239 26 49.7239ZM21.0101 49.5488V15.2323H18.734V49.0236C19.6094 49.1111 20.1347 49.3738 21.0101 49.5488ZM16.0202 48.1482V31.2525H13.7441V47.1852C14.6195 47.5354 15.2323 47.798 16.0202 48.1482Z" fill="#1589C2"/>
<path fill-rule="evenodd" clip-rule="evenodd" d="M101.374 1.31314L98.2223 2.01348V2.8889L99.623 3.23908V19.3468L98.1348 19.697V20.66H103.3V19.697L101.987 19.3468V10.7677C102.687 10.0674 103.475 9.45456 104.525 9.45456C106.101 9.45456 106.101 11.0303 106.101 12.2559V19.4344L104.788 19.697V20.66H109.865V19.697L108.465 19.3468V11.0303C108.465 9.10439 107.502 7.79126 105.488 7.79126C104 7.79126 102.95 8.57914 101.899 9.45456V1.40069H101.374V1.31314Z" fill="#1589C2"/>
<path fill-rule="evenodd" clip-rule="evenodd" d="M124.047 1.31314C123.172 1.31314 122.559 2.01348 122.559 2.8889C122.559 3.76432 123.259 4.55221 124.135 4.55221C125.01 4.55221 125.798 3.76432 125.798 2.8889C125.71 2.01348 124.923 1.31314 124.047 1.31314Z" fill="#1589C2"/>
<path fill-rule="evenodd" clip-rule="evenodd" d="M115.205 7.61618L112.141 8.4916V9.19193L113.63 9.45456V19.2593L112.141 19.6094V20.5724H117.744V19.6094L115.906 19.2593V12.2559C115.906 11.8182 116.519 10.4175 117.657 9.97981L119.057 10.6802C119.407 10.5051 119.933 10.1549 119.933 9.19193C119.933 8.22896 119.32 7.79126 118.532 7.79126C117.394 7.79126 116.781 8.66668 115.818 10.33V7.61618H115.205Z" fill="#1589C2"/>
<path fill-rule="evenodd" clip-rule="evenodd" d="M132.451 7.61618L129.387 8.4916V9.36702L130.875 9.5421V19.2593L129.387 19.6094V20.5724H134.552V19.6094L133.152 19.2593V10.5926C133.852 9.97981 134.64 9.27947 135.69 9.27947C137.178 9.27947 137.354 10.9428 137.354 11.5556V19.2593L135.865 19.5219V20.4849H141.03V19.5219L139.63 19.1717V10.8552C139.63 8.84177 138.667 7.61618 136.566 7.61618C135.165 7.61618 134.114 8.40405 133.064 9.27947V7.61618H132.451Z" fill="#1589C2"/>
<path fill-rule="evenodd" clip-rule="evenodd" d="M170.444 7.61618L167.38 8.4916V9.19193L168.869 9.45456V19.2593L167.38 19.6094V20.5724H172.983V19.6094L171.145 19.2593V12.2559C171.145 11.8182 171.758 10.4175 172.896 9.97981L174.296 10.6802C174.646 10.5051 175.172 10.1549 175.172 9.19193C175.172 8.22896 174.559 7.79126 173.771 7.79126C172.633 7.79126 172.02 8.66668 171.057 10.33V7.61618H170.444Z" fill="#1589C2"/>
<path fill-rule="evenodd" clip-rule="evenodd" d="M124.923 7.7037L121.771 8.57913V9.27947L123.084 9.62963V19.2593L121.771 19.6094V20.5724H126.936V19.6094L125.448 19.2593V7.7037H124.923Z" fill="#1589C2"/>
<path fill-rule="evenodd" clip-rule="evenodd" d="M79.5758 7.44107C75.9865 7.44107 74.4108 11.2054 74.4108 14.2694C74.4108 18.3838 76.5993 20.7475 79.3131 20.7475C82.0269 20.7475 84.4781 18.3838 84.4781 13.9192C84.5656 8.3165 81.064 7.44107 79.5758 7.44107ZM79.5758 8.49159C81.5892 8.49159 82.0269 11.9057 82.0269 14.0067C82.0269 15.67 81.8518 19.7845 79.4007 19.7845C77.7374 19.7845 77.037 17.5084 77.037 14.4444C77.037 12.8687 77.2121 8.49159 79.5758 8.49159Z" fill="#1589C2"/>
<path fill-rule="evenodd" clip-rule="evenodd" d="M91.7441 7.52863C88.0673 7.52863 87.1044 11.5556 87.1044 14.532C87.1044 18.2963 88.7677 20.835 91.7441 20.835C94.7205 20.835 95.596 18.9091 96.0337 17.9461L95.1582 17.5084C94.8081 18.0337 94.1953 19.1717 92.7071 19.1717C89.9933 19.1717 89.5556 16.0202 89.468 13.8317H96.1212C96.0337 10.7677 95.5084 7.52863 91.7441 7.52863ZM91.7441 8.57913C93.4949 8.57913 93.67 11.2929 93.67 12.7812H89.468C89.6431 11.2929 89.9057 8.57913 91.7441 8.57913Z" fill="#1589C2"/>
<path fill-rule="evenodd" clip-rule="evenodd" d="M160.29 7.52863C156.613 7.52863 155.65 11.468 155.65 14.532C155.65 18.2963 157.313 20.835 160.29 20.835C163.266 20.835 164.141 18.9091 164.579 17.9461L163.704 17.5084C163.354 18.0337 162.741 19.1717 161.253 19.1717C158.539 19.1717 158.101 15.9327 158.014 13.8317H164.667C164.579 10.7677 163.966 7.52863 160.29 7.52863ZM160.29 8.57913C162.04 8.57913 162.216 11.2054 162.216 12.7812H157.926C158.101 11.2929 158.451 8.57913 160.29 8.57913Z" fill="#1589C2"/>
<path fill-rule="evenodd" clip-rule="evenodd" d="M65.6566 2.36365C64.5185 2.36365 63.3805 2.53873 62.2424 2.53873H59.1785V3.58923L60.9293 3.93939V19.2593L59.1785 19.6094V20.5724H62.1549C62.7677 20.5724 65.569 20.6599 66.1818 20.6599C67.6701 20.6599 70.0337 20.6599 71.3468 18.2963C71.697 17.596 71.9596 16.8081 71.9596 15.7576C71.9596 14.532 71.5219 13.394 70.734 12.431C69.7711 11.468 68.7206 11.2054 67.495 10.9428C68.8081 10.4175 70.9966 9.27946 70.9966 6.56566C70.9966 5.60269 70.6465 4.55219 70.0337 3.76431C68.633 2.45118 66.6195 2.36365 65.6566 2.36365ZM65.1313 3.41415C66.0943 3.41415 68.1078 3.76432 68.1078 6.91583C68.1078 10.4175 66.0067 10.5926 64.7812 10.5926H63.2929V3.76431C63.9933 3.58923 64.3434 3.41415 65.1313 3.41415ZM63.2929 11.6431H64.5185C66.3569 11.6431 69.0707 11.8182 69.0707 15.5825C69.0707 16.9832 68.633 18.3838 67.4074 19.0842C66.6195 19.5219 65.7441 19.5219 64.9562 19.5219C64.2559 19.5219 63.6431 19.3468 63.2054 18.9966V11.6431H63.2929Z" fill="#1589C2"/>
<path fill-rule="evenodd" clip-rule="evenodd" d="M147.946 7.52863C145.495 7.52863 143.569 9.27947 143.569 11.9057C143.569 14.1818 144.97 14.9697 145.758 15.495C144.269 16.3704 143.306 17.3333 143.306 18.2963C143.306 19.1717 143.919 19.697 144.795 19.9596C143.832 20.5724 142.781 21.4478 142.781 22.8485C142.781 24.6869 145.057 25.3872 147.246 25.3872C151.185 25.3872 153.374 23.3737 153.374 21.0101C153.374 18.734 152.148 17.9461 149.872 17.8586L146.545 17.771C146.283 17.771 145.582 17.6835 145.582 17.1583C145.582 16.8081 146.195 16.1953 146.721 15.8451C147.158 16.0202 147.683 16.0202 148.121 16.0202C149.96 16.0202 152.323 14.7946 152.323 11.9057C152.323 10.5051 151.71 9.71718 151.273 9.10439L153.461 9.19192V7.87879L150.572 7.96634C149.784 7.87879 148.909 7.52863 147.946 7.52863ZM147.946 8.40405C149.784 8.40405 149.96 10.5926 149.96 11.9057C149.96 13.1313 149.784 14.9697 148.034 14.9697C146.283 14.9697 146.108 13.1313 146.108 11.7306C146.108 10.5051 146.195 8.40405 147.946 8.40405ZM146.108 20.0471C148.822 20.2222 149.96 20.3098 150.835 20.4849C151.448 20.5724 151.886 20.835 151.886 21.8855C151.886 23.2862 150.047 24.1616 147.946 24.1616C146.37 24.1616 145.057 23.4613 145.057 22.2357C145.057 21.0977 145.582 20.4849 146.108 20.0471Z" fill="#1589C2"/>
<path fill-rule="evenodd" clip-rule="evenodd" d="M107.939 28.0135L104.7 28.7138V29.5017L106.189 29.6768V45.872L104.7 46.2222V47.1852H109.865V46.1347L108.465 45.7845V27.8384H107.939V28.0135Z" fill="#1589C2"/>
<path fill-rule="evenodd" clip-rule="evenodd" d="M115.381 28.0135L112.141 28.7138V29.5017L113.63 29.8518V45.9596L112.141 46.3098V47.2727H117.306V46.2222L115.993 45.872V37.2929C116.694 36.6801 117.482 36.0673 118.532 36.0673C120.108 36.0673 120.108 37.6431 120.108 38.7812V46.0471L118.795 46.3098V47.2727H123.872V46.2222L122.471 45.872V37.5555C122.471 35.7172 121.508 34.404 119.495 34.404C118.007 34.404 116.956 35.1919 115.993 36.0673V28.0135H115.381Z" fill="#1589C2"/>
<path fill-rule="evenodd" clip-rule="evenodd" d="M140.067 28.0135C139.192 28.0135 138.492 28.7138 138.492 29.6768C138.492 30.5522 139.192 31.2525 140.067 31.2525C140.943 31.2525 141.731 30.5522 141.731 29.5892C141.643 28.8013 140.943 28.0135 140.067 28.0135Z" fill="#1589C2"/>
<path fill-rule="evenodd" clip-rule="evenodd" d="M59.266 29.2391V30.3771L60.9293 30.5522V45.9596L59.266 46.3098V47.2727H64.9562V46.2223L63.3805 45.8721V30.5522L65.0438 30.2896V29.2391H59.266Z" fill="#1589C2"/>
<path fill-rule="evenodd" clip-rule="evenodd" d="M148.559 34.3165L145.407 35.1919V35.8923L146.896 36.1549V45.9596L145.407 46.3098V47.2727H150.485V46.2223L149.259 45.8721V37.293C149.872 36.6802 150.66 35.9798 151.798 35.9798C153.286 35.9798 153.549 37.3805 153.549 38.431V46.0472L152.061 46.3973V47.3603H157.226V46.3098L155.825 45.9596V37.3805C156.525 36.6802 157.313 35.9798 158.364 35.9798C159.939 35.9798 160.027 37.6431 160.027 38.3435V45.9596L158.626 46.3098V47.2727H163.879V46.2223L162.391 45.8721V37.468C162.391 35.4546 161.165 34.4041 159.152 34.4041C157.663 34.4041 156.613 35.1044 155.562 36.2424C155.037 35.0168 153.899 34.4916 152.673 34.4916C151.273 34.4916 150.047 35.1044 148.997 36.1549V34.3165H148.559Z" fill="#1589C2"/>
<path fill-rule="evenodd" clip-rule="evenodd" d="M70.3838 34.3165L67.3198 35.1919V36.0674L68.808 36.2424V46.0472L67.3198 46.3973V47.3603H72.4848V46.3098L71.0841 45.9596V37.2929C71.7845 36.6802 72.5724 35.9798 73.6229 35.9798C75.1111 35.9798 75.2862 37.6431 75.2862 38.3435V46.0472L73.7979 46.3098V47.2727H78.9629V46.2223L77.5623 45.8721V37.5556C77.5623 35.5421 76.5993 34.3165 74.4983 34.3165C73.0976 34.3165 72.0471 35.1919 70.9966 35.9798V34.229H70.3838V34.3165Z" fill="#1589C2"/>
<path fill-rule="evenodd" clip-rule="evenodd" d="M141.03 34.4916L137.791 35.367V36.0674L139.192 36.4175V46.0472L137.791 46.3973V47.3603H142.956V46.3098L141.468 45.9596V34.4916H141.03Z" fill="#1589C2"/>
<path fill-rule="evenodd" clip-rule="evenodd" d="M98.2223 34.229C94.5455 34.229 93.5825 38.2559 93.5825 41.2323C93.5825 44.9967 95.2458 47.5354 98.2223 47.5354C101.199 47.5354 102.074 45.6094 102.512 44.6465L101.636 44.2088C101.286 44.734 100.673 45.8721 99.1852 45.8721C96.4714 45.8721 96.0337 42.7206 95.9462 40.532H102.599C102.512 37.5556 101.899 34.229 98.2223 34.229ZM98.2223 35.367C99.9731 35.367 100.148 38.0808 100.148 39.569H95.8586C96.0337 38.0808 96.3839 35.367 98.2223 35.367Z" fill="#1589C2"/>
<path fill-rule="evenodd" clip-rule="evenodd" d="M130.788 34.229C127.111 34.229 126.148 38.2559 126.148 41.2323C126.148 44.9967 127.811 47.5354 130.788 47.5354C133.764 47.5354 134.64 45.6094 135.077 44.6465L134.202 44.2088C133.852 44.734 133.239 45.8721 131.751 45.8721C129.037 45.8721 128.599 42.7206 128.512 40.532H135.165C135.077 37.5556 134.465 34.229 130.788 34.229ZM130.788 35.367C132.539 35.367 132.714 38.0808 132.714 39.569H128.424C128.599 38.0808 128.95 35.367 130.788 35.367Z" fill="#1589C2"/>
<path fill-rule="evenodd" clip-rule="evenodd" d="M85.8787 34.229C83.4276 34.229 81.5016 35.9798 81.5016 38.6061C81.5016 40.8822 82.9023 41.6701 83.6902 42.1953C82.202 43.0707 81.239 44.0337 81.239 44.9966C81.239 45.8721 81.8518 46.3973 82.7272 46.66C81.7642 47.2728 80.7137 48.1482 80.7137 49.4613C80.7137 51.2997 82.9898 52 85.1784 52C89.1178 52 91.3063 49.9865 91.3063 47.6229C91.3063 45.3468 90.0807 44.6465 87.8047 44.5589L84.4781 44.4714C84.2154 44.4714 83.5151 44.3839 83.5151 43.8586C83.5151 43.5084 84.1279 42.8956 84.6531 42.5455C85.0909 42.7206 85.6161 42.7206 86.0538 42.7206C87.8922 42.7206 90.2558 41.495 90.2558 38.6061C90.2558 37.2929 89.643 36.4175 89.2053 35.8047L91.3939 35.8923V34.5791L88.505 34.6667C87.7171 34.6667 86.8417 34.229 85.8787 34.229ZM85.8787 35.1919C87.7171 35.1919 87.8922 37.293 87.8922 38.6936C87.8922 39.9192 87.7171 41.7576 85.9663 41.7576C84.2154 41.7576 84.0403 39.8317 84.0403 38.5185C84.0403 37.2929 84.1279 35.1919 85.8787 35.1919ZM84.0403 46.7475C86.7541 46.9226 87.8922 47.0101 88.7676 47.1852C89.3804 47.2727 89.8181 47.5354 89.8181 48.5859C89.8181 49.899 87.9797 50.7744 85.8787 50.7744C84.303 50.7744 82.9898 50.0741 82.9898 48.8485C82.9898 47.798 83.5151 47.1852 84.0403 46.7475Z" fill="#1589C2"/>
</svg>
