<svg width="100" height="100" viewBox="0 0 100 100" fill="none" xmlns="http://www.w3.org/2000/svg">
<circle cx="50" cy="50" r="50" fill="#FF7E7E"/>
<path d="M60.0402 79.6096H39.9807C39.5707 79.6096 39.2466 79.279 39.2466 78.8755C39.2466 78.4721 39.5773 78.1414 39.9807 78.1414H60.0402C60.4503 78.1414 60.7744 78.4721 60.7744 78.8755C60.7744 79.279 60.4503 79.6096 60.0402 79.6096Z" fill="white" stroke="white"/>
<path d="M50.0132 79.6097C49.6031 79.6097 49.2791 79.279 49.2791 78.8755V65.9919C49.2791 65.5819 49.6097 65.2578 50.0132 65.2578C50.4232 65.2578 50.7473 65.5885 50.7473 65.9919V78.8755C50.7473 79.279 50.4166 79.6097 50.0132 79.6097Z" fill="white" stroke="white"/>
<path d="M50.0992 58.8822H49.9238C44.7278 58.8822 40.4961 54.0939 40.4961 48.2143V30.6613C40.4961 24.7883 44.7219 20 49.918 20H50.0933C55.2894 20 59.5211 24.7883 59.5211 30.668V48.2209C59.5269 54.1005 55.2953 58.8822 50.0992 58.8822ZM49.918 21.4748C45.4408 21.4748 41.7937 25.6018 41.7937 30.668V48.2209C41.7937 53.287 45.4408 57.414 49.918 57.414H50.0933C54.5705 57.414 58.2177 53.287 58.2177 48.2209V30.668C58.2177 25.6018 54.5705 21.4748 50.0933 21.4748H49.918Z" fill="white" stroke="white"/>
<path d="M50.1127 65.6282H49.9143C45.5955 65.6282 41.5412 63.9483 38.4857 60.8928C35.4301 57.8438 33.7502 53.783 33.7502 49.4642C33.7502 49.0541 34.0809 48.7301 34.4844 48.7301C34.8944 48.7301 35.2185 49.0608 35.2185 49.4642C35.2185 53.3862 36.7463 57.0766 39.5174 59.8478C42.2886 62.619 45.9791 64.1467 49.901 64.1467H50.0995C54.0214 64.1467 57.7119 62.619 60.483 59.8478C63.2542 57.0766 64.782 53.3862 64.782 49.4642C64.782 49.0541 65.1127 48.7301 65.5161 48.7301C65.9262 48.7301 66.2502 49.0608 66.2502 49.4642C66.2502 53.783 64.5703 57.8372 61.5148 60.8928C58.4857 63.9483 54.4248 65.6282 50.1127 65.6282Z" fill="white" stroke="white"/>
</svg>
