<svg width="40" height="40" viewBox="0 0 40 40" fill="none" xmlns="http://www.w3.org/2000/svg">
<circle cx="20" cy="20" r="20" fill="#1589C2"/>
<path d="M19.344 24.736C18.592 23.552 18.2 22.496 18.168 21.568C18.168 20.832 18.504 20.112 19.176 19.408C19.864 18.688 20.936 17.96 22.392 17.224C22.408 17.208 22.496 17.032 22.656 16.696C22.816 16.36 22.896 15.872 22.896 15.232C22.896 14.608 22.728 14.024 22.392 13.48C22.072 12.92 21.56 12.472 20.856 12.136C20.168 11.784 19.312 11.608 18.288 11.608C17.648 11.608 17.04 11.76 16.464 12.064L15.912 9.928C16.264 9.736 16.776 9.568 17.448 9.424C18.12 9.28 18.912 9.208 19.824 9.208C21.424 9.208 22.744 9.472 23.784 10C24.824 10.512 25.584 11.2 26.064 12.064C26.56 12.912 26.808 13.848 26.808 14.872C26.808 15.688 26.648 16.384 26.328 16.96C26.008 17.52 25.624 17.976 25.176 18.328C24.744 18.664 24.168 19.048 23.448 19.48C22.92 19.8 22.52 20.056 22.248 20.248C21.976 20.44 21.752 20.656 21.576 20.896C21.464 21.12 21.416 21.376 21.432 21.664C21.432 22.912 21.512 23.936 21.672 24.736H19.344ZM20.232 31.192C19.704 31.192 19.232 31.008 18.816 30.64C18.4 30.256 18.192 29.784 18.192 29.224C18.192 28.584 18.424 28.064 18.888 27.664C19.368 27.248 19.936 27.04 20.592 27.04C21.248 27.04 21.768 27.24 22.152 27.64C22.536 28.024 22.728 28.488 22.728 29.032C22.728 29.704 22.496 30.232 22.032 30.616C21.584 31 20.984 31.192 20.232 31.192Z" fill="white"/>
</svg>
