<svg width="24" height="24" viewBox="0 0 24 24" fill="none" xmlns="http://www.w3.org/2000/svg">
<circle cx="12" cy="12" r="11.5" fill="white" stroke="#1589C2"/>
<path d="M9.87744 7C9.87744 6.44771 10.3252 6 10.8774 6H13.5965C14.1487 6 14.5965 6.44772 14.5965 7V16.7975C14.5965 17.3498 14.1487 17.7975 13.5965 17.7975H10.8774C10.3252 17.7975 9.87744 17.3498 9.87744 16.7975V7Z" fill="#1589C2"/>
<path d="M17.1357 9.53931C17.688 9.53931 18.1357 9.98702 18.1357 10.5393L18.1357 13.2583C18.1357 13.8106 17.688 14.2583 17.1357 14.2583L7.33814 14.2583C6.78586 14.2583 6.33814 13.8106 6.33814 13.2583L6.33814 10.5393C6.33814 9.98702 6.78586 9.53931 7.33814 9.53931L17.1357 9.53931Z" fill="#1589C2"/>
</svg>
