<svg width="18" height="14" viewBox="0 0 18 14" fill="none" xmlns="http://www.w3.org/2000/svg">
<rect x="4.05884" y="0.5" width="12.5883" height="10" fill="#F2F2F2" stroke="#1589C2"/>
<rect x="2.76477" y="1.79419" width="12.5883" height="10" fill="#F2F2F2" stroke="#1589C2"/>
<path d="M13.7353 5.55885V11.9118C13.7353 12.7402 13.0637 13.4118 12.2353 13.4118H2C1.17157 13.4118 0.5 12.7402 0.5 11.9118V4.82331C0.5 4.40111 0.842261 4.05885 1.26446 4.05885H1.35793C1.88949 4.05885 2.38588 3.79319 2.68073 3.3509C2.79012 3.18682 2.97428 3.08826 3.17149 3.08826H7.18146C7.37867 3.08826 7.56283 3.18682 7.67222 3.3509C7.96708 3.79319 8.46347 4.05885 8.99502 4.05885H12.2353C13.0637 4.05885 13.7353 4.73042 13.7353 5.55885Z" fill="white" stroke="#1589C2"/>
<path d="M6.40594 6.82349C6.40594 6.2712 6.85366 5.82349 7.40594 5.82349H7.47653C8.02882 5.82349 8.47653 6.2712 8.47653 6.82349V9.99996C8.47653 10.5522 8.02882 11 7.47653 11H7.40595C6.85366 11 6.40594 10.5522 6.40594 9.99996V6.82349Z" fill="#1589C2"/>
<path d="M9.02936 7.37646C9.58164 7.37646 10.0294 7.82418 10.0294 8.37646L10.0294 8.44705C10.0294 8.99934 9.58164 9.44705 9.02936 9.44705L5.85288 9.44705C5.3006 9.44705 4.85288 8.99934 4.85288 8.44705L4.85288 8.37646C4.85288 7.82418 5.3006 7.37646 5.85288 7.37646L9.02936 7.37646Z" fill="#1589C2"/>
</svg>
